<svg width="64" height="32" viewBox="0 0 64 32" fill="none" xmlns="http://www.w3.org/2000/svg">
<path d="M63.75 0.25V27.877L59.877 31.75H0.25V4.12305L4.12305 0.25H63.75Z" fill="#161616" stroke="#29302D" stroke-width="0.5"/>
<path d="M63.75 0.25V27.877L59.877 31.75H0.25V4.12305L4.12305 0.25H63.75Z" fill="url(#paint0_linear_110_334)" style="mix-blend-mode:color-dodge"/>
<path d="M63.75 0.25V27.877L59.877 31.75H0.25V4.12305L4.12305 0.25H63.75Z" fill="url(#paint1_linear_110_334)" style="mix-blend-mode:overlay"/>
<path d="M63.75 0.25V27.877L59.877 31.75H0.25V4.12305L4.12305 0.25H63.75Z" stroke="#29302D" stroke-width="0.5"/>
<path d="M60.3496 3.25V24.0166L56.4961 27.8701H32.25V7.12207L36.1035 3.25H60.3496Z" fill="#0B0B0B"/>
<path d="M60.3496 3.25V24.0166L56.4961 27.8701H32.25V7.12207L36.1035 3.25H60.3496Z" stroke="url(#paint2_linear_110_334)" style="mix-blend-mode:screen" stroke-width="0.5"/>
<defs>
<linearGradient id="paint0_linear_110_334" x1="0" y1="16" x2="64" y2="16" gradientUnits="userSpaceOnUse">
<stop stop-color="#111815"/>
<stop offset="1" stop-color="#84FFB1"/>
</linearGradient>
<linearGradient id="paint1_linear_110_334" x1="64" y1="16" x2="0" y2="16" gradientUnits="userSpaceOnUse">
<stop stop-color="#00E855"/>
<stop offset="1" stop-color="#00E855" stop-opacity="0"/>
</linearGradient>
<linearGradient id="paint2_linear_110_334" x1="32" y1="28.12" x2="55.9798" y2="-1.20095" gradientUnits="userSpaceOnUse">
<stop stop-color="#C5FFDA"/>
<stop offset="0.246621" stop-color="#1C1C1C"/>
<stop offset="0.753678" stop-color="#1C1C1C"/>
<stop offset="1" stop-color="#C5FFDA"/>
</linearGradient>
</defs>
</svg>
