<svg width="16" height="4" viewBox="0 0 16 4" fill="none" xmlns="http://www.w3.org/2000/svg">
<g clip-path="url(#clip0_103_51)">
<path d="M4.29907 1.06665H4.62299V1.47204H5.34762V1.06665H5.67153V2.17263H5.34762V1.73017H4.62299V2.17263H4.29907V1.06665Z" fill="#83FFB0"/>
<path d="M5.91455 1.06665H7.08632V1.30374H6.23846V1.49609H6.88763V1.72216H6.23846V1.93521H7.09266V2.1723H5.91455V1.06665Z" fill="#83FFB0"/>
<path d="M7.7321 1.06665H8.16154L8.73223 2.17263H8.39729L8.26906 1.92252H7.59419L7.46596 2.17263H7.15674L7.7321 1.06665ZM7.7114 1.69511H8.15386L7.9328 1.26233L7.71173 1.69511H7.7114Z" fill="#83FFB0"/>
<path d="M9.05149 1.32311H8.52588V1.06665H9.90268V1.32311H9.37707V2.17263H9.05182V1.32311H9.05149Z" fill="#83FFB0"/>
<path d="M10.4061 1.06665H11.5648V1.32311H10.7297V1.52514H11.4092V1.77358H10.7297V2.17263H10.4058V1.06665H10.4061Z" fill="#83FFB0"/>
<path d="M11.7061 1.6694V1.06665H12.03V1.6517C12.03 1.71147 12.038 1.76089 12.054 1.79996C12.07 1.83903 12.0934 1.86942 12.1245 1.89146C12.1555 1.9135 12.1949 1.92853 12.243 1.93721C12.2911 1.94589 12.3472 1.9499 12.4113 1.9499C12.4754 1.9499 12.5315 1.94556 12.5796 1.93721C12.6277 1.92853 12.6674 1.9135 12.6992 1.89146C12.7306 1.86942 12.7543 1.83903 12.7696 1.79996C12.785 1.76089 12.793 1.71147 12.793 1.6517V1.06665H13.0862V1.6694C13.0862 1.8564 13.0291 1.99064 12.9146 2.07245C12.8003 2.15427 12.6324 2.19501 12.4113 2.19501C12.1903 2.19501 12.0093 2.15427 11.888 2.07245C11.7668 1.99064 11.7061 1.8564 11.7061 1.6694Z" fill="#83FFB0"/>
<path d="M13.2478 1.82158H13.5747C13.5928 1.87935 13.6315 1.91775 13.6903 1.93712C13.749 1.95649 13.8372 1.96584 13.9547 1.96584C14.0796 1.96584 14.1715 1.95682 14.2296 1.93846C14.2877 1.92043 14.3171 1.88937 14.3171 1.84563C14.3171 1.78685 14.2623 1.75446 14.1528 1.74879C14.0432 1.74277 13.923 1.73576 13.7921 1.72708C13.6612 1.7184 13.541 1.69369 13.4315 1.65261C13.3219 1.61154 13.2672 1.52639 13.2672 1.39682C13.2672 1.26726 13.3263 1.18177 13.4442 1.12667C13.5624 1.07157 13.7277 1.04419 13.9404 1.04419C14.1531 1.04419 14.3161 1.07257 14.4293 1.12901C14.5425 1.18578 14.6062 1.27794 14.6199 1.40617H14.293C14.2823 1.35374 14.2463 1.31868 14.1848 1.30031C14.1234 1.28228 14.0419 1.27293 13.9404 1.27293C13.8142 1.27293 13.7243 1.28061 13.6702 1.29631C13.6161 1.31167 13.5894 1.34239 13.5894 1.38847C13.5894 1.44524 13.6442 1.47596 13.7537 1.48131C13.8632 1.48665 13.9835 1.49366 14.1144 1.50201C14.2453 1.51069 14.3655 1.53473 14.475 1.57481C14.5845 1.61488 14.6393 1.69736 14.6393 1.82258C14.6393 1.94781 14.5845 2.04765 14.475 2.10643C14.3655 2.1652 14.1922 2.19458 13.9547 2.19458C13.8339 2.19458 13.7303 2.18724 13.6438 2.17221C13.5574 2.15718 13.4862 2.13448 13.4308 2.10409C13.3754 2.0737 13.3326 2.03496 13.3032 1.98788C13.2738 1.9408 13.2555 1.88536 13.2478 1.82125V1.82158Z" fill="#83FFB0"/>
<path d="M14.822 1.06665H15.9938V1.30374H15.1459V1.49609H15.7951V1.72216H15.1459V1.93521H16.0001V2.1723H14.822V1.06665Z" fill="#83FFB0"/>
<path d="M0.643148 1.06567L0.602742 3.43325L0.184326 3.00014L0.210039 1.48376L0.643148 1.06567Z" fill="white"/>
<path d="M0.602783 3.43325L0.643189 1.06567L0.871598 1.28807L0.838873 3.20484L0.602783 3.43325Z" fill="white"/>
<path d="M0.838867 3.20494L0.854896 2.25391L1.08331 2.49L1.07496 2.97687L0.838867 3.20494Z" fill="white"/>
<path d="M2.0303 1.36478L0 0.145928L0.584046 0L1.88438 0.780732L2.0303 1.36478Z" fill="white"/>
<path d="M0 0.145996L2.0303 1.36485L1.72309 1.45133L0.0794757 0.464567L0 0.145996Z" fill="white"/>
<path d="M0.0795898 0.4646L0.895385 0.954143L0.576814 1.03395L0.159066 0.78317L0.0795898 0.4646Z" fill="white"/>
<path d="M1.07764 2.4163L3.14801 1.26758L2.98238 1.84628L1.65634 2.58193L1.07764 2.4163Z" fill="white"/>
<path d="M3.14801 1.26774L1.07764 2.41647L1.15611 2.10725L2.83245 1.17725L3.14801 1.26774Z" fill="white"/>
<path d="M2.83256 1.17717L2.00073 1.63866L2.09089 1.32309L2.51699 1.08667L2.83256 1.17717Z" fill="white"/>
</g>
<defs>
<clipPath id="clip0_103_51">
<rect width="16" height="3.43315" fill="white"/>
</clipPath>
</defs>
</svg>
