<svg width="16" height="16" viewBox="0 0 16 16" fill="none" xmlns="http://www.w3.org/2000/svg">
<path d="M4.0625 6.00293L3.98535 10.5039L5.04883 11.6035L5.00977 13.873L2.80859 16L0.858398 13.9824L0.979492 6.91504L2.99707 4.96582L4.0625 6.00293ZM13.2012 5.48633L14.6719 5.90723L13.8994 8.60547L7.71875 12.0342L5.02148 11.2617L5.3877 9.82031L9.32324 7.63672L9.74414 6.16504L11.7295 5.06445L13.2012 5.48633ZM8.78223 3.6377L9.46191 6.36035L8.03027 6.76367L4.17188 4.44727L2.6875 4.81836L0.741211 3.64941L0.371094 2.16406L0 0.679688L2.72266 0L8.78223 3.6377Z" fill="#F2F2F2"/>
</svg>
