<svg width="16" height="16" viewBox="0 0 16 16" fill="none" xmlns="http://www.w3.org/2000/svg">
<path d="M14.4004 2.6123C14.5727 2.6124 14.7222 2.67664 14.8496 2.80664C14.9771 2.93673 15.04 3.08962 15.04 3.26562C15.04 3.44154 14.977 3.59457 14.8496 3.72461L13.1201 5.49023V8.49023H15.3604C15.5326 8.49032 15.6822 8.55377 15.8096 8.68359C15.937 8.81361 15.9999 8.9667 16 9.14258C16 9.3186 15.9371 9.47244 15.8096 9.60254C15.6823 9.73226 15.5325 9.79581 15.3604 9.7959H13.1201C13.1201 10.959 12.8976 11.9463 12.4502 12.7549L14.5303 14.8877C14.6576 15.0177 14.7197 15.1708 14.7197 15.3467C14.7197 15.5227 14.6578 15.6765 14.5303 15.8066C14.4103 15.9366 14.26 16 14.0801 16C13.9002 16 13.7499 15.9366 13.6299 15.8066L11.6504 13.7959C11.6179 13.8291 11.5675 13.8751 11.5 13.9287C11.4325 13.9823 11.2925 14.0794 11.0801 14.2197C10.8676 14.36 10.6497 14.4821 10.4297 14.5918C10.2098 14.7014 9.93759 14.7985 9.61035 14.8877C9.28285 14.977 8.95965 15.0205 8.63965 15.0205V5.87793H7.36035V15.0205C7.02035 15.0205 6.68223 14.9746 6.34473 14.8828C6.00732 14.791 5.71705 14.6785 5.47461 14.5459C5.23244 14.4134 5.01271 14.2809 4.81543 14.1484C4.61793 14.0158 4.47238 13.9057 4.37988 13.8164L4.23047 13.6738L2.40039 15.7861C2.26789 15.929 2.10742 16 1.91992 16C1.76003 16 1.61766 15.9465 1.49023 15.8369C1.36276 15.7145 1.29518 15.5639 1.28516 15.3828C1.27516 15.2017 1.32793 15.0434 1.44043 14.9082L3.45996 12.5918C3.07249 11.8163 2.87988 10.8851 2.87988 9.7959H0.639648C0.46749 9.79581 0.31775 9.73226 0.19043 9.60254C0.0629297 9.47244 0 9.3186 0 9.14258C8.01653e-05 8.9667 0.0630115 8.81361 0.19043 8.68359C0.317782 8.55377 0.467423 8.49032 0.639648 8.49023H2.87988V5.49023L1.15039 3.72461C1.02295 3.59457 0.960022 3.44154 0.959961 3.26562C0.959961 3.08962 1.02292 2.93673 1.15039 2.80664C1.27779 2.67664 1.42727 2.6124 1.59961 2.6123C1.77211 2.6123 1.9223 2.67654 2.0498 2.80664L3.78027 4.57129H12.2197L13.9502 2.80664C14.0777 2.67654 14.2279 2.6123 14.4004 2.6123ZM3.63281 5.33203V9.79102C3.63283 10.7527 3.7999 11.577 4.12988 12.2402L4.3623 12.707L4.34277 12.7295L4.74219 13.1123L4.89258 13.2549C4.92508 13.288 5.01504 13.365 5.22754 13.5078C5.40247 13.6277 5.60476 13.7477 5.82715 13.8701C6.01955 13.9747 6.2573 14.0661 6.53711 14.1426C6.56211 14.1477 6.58535 14.156 6.61035 14.1611L6.6123 5.33203H3.63281ZM9.39258 5.33691V14.1553C9.40247 14.1527 9.41002 14.1485 9.41992 14.1484C9.69742 14.0719 9.93047 13.9901 10.1055 13.9033C10.3004 13.8064 10.4928 13.6966 10.6777 13.5742C10.9479 13.3972 11.0189 13.3429 11.0322 13.332C11.0975 13.2802 11.1206 13.2563 11.1221 13.2549L11.5596 12.8115L11.7979 12.3799C12.1777 11.6886 12.3701 10.8212 12.3701 9.7959V9.25488L12.3721 5.33691H9.39258ZM8 0C8.88742 7.88035e-06 9.64218 0.319005 10.2646 0.954102C10.8871 1.58931 11.2002 2.36001 11.2002 3.26562H4.7998C4.7998 2.36001 5.11285 1.58931 5.73535 0.954102C6.35782 0.319019 7.11258 0 8 0ZM8 0.765625C7.315 0.765625 6.74715 1.00277 6.26465 1.49512C5.97229 1.79607 5.76969 2.12766 5.65723 2.5H10.3428C10.2303 2.12768 10.0277 1.79351 9.73535 1.49512C9.25286 1.00533 8.68499 0.765633 8 0.765625Z" fill="white"/>
</svg>
