<svg width="16" height="11" viewBox="0 0 16 11" fill="none" xmlns="http://www.w3.org/2000/svg">
<path d="M2.91045 10.7892C1.3052 10.7892 0 9.48398 0 7.87873C0 7.23863 0.202532 6.63354 0.587592 6.12346C0.880137 5.7359 1.2702 5.42585 1.71527 5.22332L1.77278 5.19831V5.1333C1.77028 5.0983 1.76778 5.06579 1.76778 5.03079C1.76778 3.42554 3.07298 2.12033 4.67823 2.12033C4.81075 2.12033 4.94577 2.13033 5.07579 2.14784L5.1383 2.15534L5.17081 2.10283C5.51586 1.52774 5.99844 1.03266 6.56603 0.672605C7.25863 0.232536 8.06126 0 8.88389 0C11.1342 0 13.0295 1.75527 13.2046 3.99562L13.2096 4.06814L13.2796 4.08314C13.9772 4.22066 14.6023 4.57071 15.0899 5.0933C15.6774 5.72089 16 6.54102 16 7.40366C16 9.26895 14.4823 10.7867 12.617 10.7867H2.91045V10.7892ZM2.29536 5.81841C1.39022 6.08845 0.760119 6.93608 0.760119 7.87873C0.760119 9.06392 1.72527 10.0291 2.91045 10.0291H12.6195C14.0672 10.0291 15.2449 8.85138 15.2449 7.40366C15.2449 6.03344 14.1772 4.88326 12.812 4.78575L12.4544 4.76074L12.4619 4.33818C12.4619 2.36787 10.8592 0.765119 8.88889 0.765119C7.51867 0.765119 6.28848 1.53024 5.68339 2.76043L5.54587 3.04047L5.24582 2.96046C5.06329 2.91045 4.87576 2.88545 4.68573 2.88545C3.50055 2.88545 2.5354 3.8506 2.5354 5.03579C2.5354 5.1533 2.5454 5.27582 2.5654 5.39584L2.62041 5.72589L2.29786 5.82091L2.29536 5.81841Z" fill="white"/>
</svg>
