<svg width="16" height="16" viewBox="0 0 16 16" fill="none" xmlns="http://www.w3.org/2000/svg">
<path d="M12.5703 0C14.4601 0.000169622 15.9998 1.53744 16 3.42969V12.5703C15.9998 14.4626 14.4626 15.9998 12.5703 16H3.42969C1.53993 15.9998 0.000169674 14.4626 0 12.5703V3.42969C0.000169545 1.53744 1.53993 0.000169493 3.42969 0H12.5703ZM3.42969 0.764648C1.96243 0.764818 0.767747 1.95994 0.767578 3.42969V12.5703C0.767748 14.0376 1.96243 15.2323 3.42969 15.2324H12.5703C14.0376 15.2323 15.2323 14.0376 15.2324 12.5703V3.42969C15.2323 1.95994 14.0376 0.767748 12.5703 0.767578H3.42969V0.764648ZM3.42969 6.85742C3.51217 6.85742 3.59267 6.88459 3.66016 6.93457L6.70703 9.21973C6.80201 9.29221 6.86033 9.40737 6.86035 9.52734C6.86035 9.64734 6.80203 9.76246 6.70703 9.83496L3.66016 12.1201C3.59266 12.1701 3.51469 12.1973 3.42969 12.1973V12.1924C3.3073 12.1923 3.19451 12.1375 3.12207 12.04C3.05964 11.9576 3.03481 11.8573 3.0498 11.7549C3.06481 11.6524 3.1177 11.5645 3.2002 11.502L5.83789 9.52539L3.2002 7.54785C3.1177 7.48535 3.0648 7.39742 3.0498 7.29492C3.03482 7.19497 3.06212 7.09224 3.12207 7.00977C3.19451 6.91234 3.3073 6.85751 3.42969 6.85742ZM13.333 11.4277C13.5452 11.428 13.7147 11.5999 13.7148 11.8096C13.7148 12.0194 13.5428 12.1921 13.333 12.1924H8.7627C8.5502 12.1924 8.37988 12.0196 8.37988 11.8096C8.38007 11.5997 8.55281 11.4277 8.7627 11.4277H13.333Z" fill="white"/>
</svg>
