<svg width="16" height="16" viewBox="0 0 16 16" fill="none" xmlns="http://www.w3.org/2000/svg">
<g clip-path="url(#clip0_96_8)">
<path d="M5.9605 12.179H3.8208V10.0393L10.0393 3.8208H12.179V5.9605L5.9605 12.179ZM4.53722 11.4626H5.65961L11.4626 5.65961V4.53722H10.3402L4.53722 10.3402V11.4626Z" fill="white"/>
<path d="M8 16C3.58687 16 0 12.4131 0 8C0 3.58687 3.58687 0 8 0C12.4131 0 16 3.58687 16 8C16 12.4131 12.4131 16 8 16ZM8 0.716418C3.98328 0.716418 0.716418 3.98328 0.716418 8C0.716418 12.0167 3.98328 15.2836 8 15.2836C12.0167 15.2836 15.2836 12.0167 15.2836 8C15.2836 3.98328 12.0167 0.716418 8 0.716418Z" fill="white"/>
</g>
<defs>
<clipPath id="clip0_96_8">
<rect width="16" height="16" fill="white"/>
</clipPath>
</defs>
</svg>
