<svg width="16" height="12" viewBox="0 0 16 12" fill="none" xmlns="http://www.w3.org/2000/svg">
<path d="M9.93359 0C9.96645 6.02308e-05 10.5498 0.00730163 11.7812 0.455078C12.4386 0.690057 13.0759 0.990235 13.6758 1.34766C13.7333 1.38516 13.7786 1.43273 13.8086 1.49023C14.4186 2.7177 14.8988 4.01056 15.2363 5.33301C15.8638 7.8403 16.0015 9.17778 15.999 9.28027C16.009 9.36526 15.9732 9.46799 15.9082 9.54297C15.2583 10.2303 14.4909 10.7676 13.626 11.1426C12.8359 11.4776 12.0058 11.7025 11.1582 11.8125H11.1182C10.9882 11.8125 10.8658 11.7424 10.8008 11.6299L10.1777 10.5625C9.47782 10.6775 8.76546 10.7354 8.06055 10.7354H7.93262C7.23029 10.7353 6.52046 10.6779 5.82812 10.5654L5.20508 11.6299C5.14014 11.7448 5.01809 11.8153 4.88574 11.8154H4.84766C3.99515 11.7029 3.16501 11.4752 2.375 11.1377C1.50751 10.7627 0.742227 10.225 0.0947266 9.54004C0.0248783 9.46008 -0.00706018 9.35966 0.00292969 9.25977H0C0.00214213 9.23219 0.100342 8.00463 0.762695 5.33301C1.10022 4.00797 1.58039 2.71472 2.19043 1.49219C2.2229 1.43237 2.26543 1.38453 2.32031 1.34961C2.92268 0.989729 3.55751 0.687101 4.21484 0.452148C5.40992 0.0121368 5.99804 0 6.06055 0C6.24544 7.65861e-05 6.40267 0.137501 6.42773 0.317383L6.48535 0.714844C6.98788 0.669843 7.49551 0.644531 7.99805 0.644531C8.50057 0.644532 9.00822 0.667343 9.51074 0.714844L9.56836 0.317383C9.59343 0.137455 9.75113 0 9.93359 0ZM5.7627 0.780273C5.32775 0.862773 4.8978 0.985107 4.48535 1.14258C3.90531 1.35258 3.34503 1.61296 2.8125 1.91797C2.25506 3.06538 1.8126 4.27293 1.49512 5.50781C0.990279 7.51962 0.815148 8.74943 0.767578 9.15234L0.754883 9.16016C1.30742 9.71017 1.94804 10.1498 2.66309 10.4648C3.31307 10.7348 3.99296 10.9329 4.69043 11.0479L5.06738 10.3975C4.49477 10.2349 3.3701 9.83779 2.48535 9.0332C2.41285 8.9682 2.36731 8.87485 2.3623 8.77734C2.35741 8.67749 2.39059 8.58217 2.45801 8.50977C2.528 8.43252 2.63054 8.3877 2.73535 8.3877C2.82766 8.38774 2.915 8.42014 2.98242 8.48242C4.06249 9.46495 5.68324 9.78754 5.69824 9.79004C6.43556 9.92748 7.17533 9.99802 7.91016 9.99805H8.05078C8.80069 9.99803 9.55317 9.92567 10.2881 9.7832H10.3086C10.4777 9.74784 12.0016 9.40698 13.0186 8.47754C13.0885 8.41521 13.1758 8.38287 13.2656 8.38281C13.3705 8.38281 13.4705 8.42762 13.543 8.50488C13.6079 8.57981 13.6436 8.67506 13.6387 8.77246C13.6337 8.87244 13.5881 8.96235 13.5156 9.02734C12.6682 9.79976 11.5887 10.2031 10.9336 10.3906L11.3135 11.04C12.0084 10.9225 12.6913 10.7275 13.3438 10.4551C14.0586 10.1451 14.7039 9.70757 15.2588 9.16016C15.1838 8.57014 14.9912 7.35513 14.5312 5.5127C14.2112 4.27772 13.7631 3.07034 13.2031 1.92285C12.6706 1.61785 12.1082 1.35746 11.5332 1.14746C11.1182 0.987485 10.6908 0.867223 10.2559 0.782227L10.248 0.839844C10.7931 0.984848 11.9361 1.34237 12.8486 2.00488C13.0135 2.12491 13.0487 2.35804 12.9287 2.52051C12.8587 2.61545 12.7479 2.67285 12.6279 2.67285C12.5506 2.67277 12.476 2.64737 12.4111 2.60254C11.3286 1.81688 9.83765 1.49926 9.76855 1.48535C9.21352 1.41785 8.63797 1.38477 8.06543 1.38477H7.95508C7.38532 1.38478 6.80555 1.41985 6.23828 1.4873C5.98328 1.5448 4.61052 1.87261 3.60547 2.60254C3.54296 2.65004 3.4677 2.67285 3.3877 2.67285C3.27025 2.67284 3.15735 2.61543 3.08984 2.52051C2.96986 2.35554 3.005 2.12491 3.16992 2.00488C4.08248 1.34237 5.22547 0.984848 5.77051 0.839844L5.7627 0.780273ZM5.69043 4.94727C6.51538 4.9473 7.18737 5.69254 7.1875 6.60742C7.1875 7.52243 6.51546 8.26559 5.69043 8.26562C4.86538 8.26562 4.19238 7.52245 4.19238 6.60742C4.19252 5.69252 4.86546 4.94727 5.69043 4.94727ZM10.3105 4.94727C11.1355 4.94727 11.8085 5.69252 11.8086 6.60742C11.8086 7.52245 11.1356 8.26562 10.3105 8.26562C9.48558 8.26551 8.81348 7.52238 8.81348 6.60742C8.81361 5.69259 9.48566 4.94738 10.3105 4.94727ZM5.69043 5.69238C5.27301 5.69238 4.93084 6.10497 4.93066 6.6123C4.93066 7.11982 5.2379 7.49027 5.62793 7.53027H5.69043C6.10793 7.52774 6.44824 7.1173 6.44824 6.6123C6.44807 6.10749 6.10783 5.69242 5.69043 5.69238ZM10.3105 5.69238C9.89321 5.69251 9.55291 6.10505 9.55273 6.6123C9.55273 7.11974 9.86061 7.49018 10.248 7.53027H10.3105C10.7281 7.52777 11.0703 7.11732 11.0703 6.6123C11.0701 6.10747 10.7305 5.69238 10.3105 5.69238Z" fill="white"/>
</svg>
