<svg width="16" height="16" viewBox="0 0 16 16" fill="none" xmlns="http://www.w3.org/2000/svg">
<g clip-path="url(#clip0_108_173)">
<path d="M0.395 15.155C0.1775 15.155 0 14.9775 0 14.76C0 14.5425 0.1775 14.365 0.395 14.365H15.6025C15.82 14.365 15.9975 14.5425 15.9975 14.76C15.9975 14.9775 15.82 15.155 15.6025 15.155H0.395Z" fill="#F2F2F2"/>
<path d="M8 11.78C7.8925 11.78 7.7925 11.7375 7.72 11.6625L3.4925 7.4375C3.4175 7.3625 3.375 7.2625 3.375 7.155C3.375 7.0475 3.4175 6.9475 3.4925 6.8725C3.5675 6.7975 3.6675 6.755 3.775 6.755C3.8825 6.755 3.9825 6.7975 4.0575 6.8725L7.6025 10.43V0.395C7.6025 0.1775 7.78 0 7.9975 0C8.215 0 8.3925 0.1775 8.3925 0.395V10.4275L11.94 6.87C12.015 6.795 12.115 6.7525 12.2225 6.7525C12.33 6.7525 12.43 6.795 12.505 6.87C12.58 6.945 12.6225 7.045 12.6225 7.1525C12.6225 7.26 12.58 7.36 12.505 7.435L8.28 11.66C8.2025 11.7375 8.1025 11.7775 7.9975 11.7775L8 11.78Z" fill="#F2F2F2"/>
</g>
<defs>
<clipPath id="clip0_108_173">
<rect width="16" height="15.155" fill="white"/>
</clipPath>
</defs>
</svg>
