<svg width="13" height="16" viewBox="0 0 13 16" fill="none" xmlns="http://www.w3.org/2000/svg">
<path d="M1.46977 15.9975C0.659897 15.9975 0 15.3376 0 14.5277V1.46977C0 0.659897 0.659897 0 1.46977 0H7.54882C7.93626 0.00999844 8.3062 0.164974 8.59116 0.434932L12.3031 4.14685C12.5705 4.42681 12.723 4.79925 12.733 5.19169V14.5302C12.733 15.3401 12.0731 16 11.2632 16H1.46977V15.9975ZM1.46977 0.76488C1.07983 0.76488 0.76488 1.08233 0.76488 1.46977V14.5277C0.76488 14.9177 1.08233 15.2326 1.46977 15.2326H11.2632C11.6532 15.2326 11.9681 14.9152 11.9681 14.5277V5.1167H9.08608C8.27621 5.1167 7.61631 4.4568 7.61631 3.64693V0.76488H1.46977ZM8.38119 3.64693C8.38119 4.03687 8.69864 4.35182 9.08608 4.35182H11.4282L8.38119 1.3048V3.64693Z" fill="#F2F2F2"/>
</svg>
