<svg width="16" height="14" viewBox="0 0 16 14" fill="none" xmlns="http://www.w3.org/2000/svg">
<path d="M1.795 13.4675C0.804999 13.4675 0 12.6625 0 11.6725V1.795C0 0.804999 0.804999 0 1.795 0H5.33749C5.83749 0 6.30749 0.19 6.63999 0.522499L8.26249 2.23C8.45249 2.425 8.71749 2.5375 8.99249 2.5375H14.205C15.195 2.5375 16 3.3425 16 4.33249V11.6675C16.005 12.6575 15.2025 13.4625 14.215 13.4675H1.795ZM1.795 0.772499C1.2325 0.772499 0.772499 1.2325 0.772499 1.795V11.6725C0.772499 12.235 1.23 12.695 1.795 12.695H14.2125C14.775 12.6925 15.23 12.2325 15.2275 11.6675V4.33249C15.2275 3.76999 14.77 3.31 14.205 3.31H8.99249C8.50999 3.31 8.03999 3.11 7.70249 2.765L6.08749 1.0625C5.89999 0.877499 5.64249 0.772499 5.37499 0.772499H1.795Z" fill="#F2F2F2"/>
</svg>
