<svg width="16" height="16" viewBox="0 0 16 16" fill="none" xmlns="http://www.w3.org/2000/svg">
<path d="M7.99902 0C8.11642 4.15346e-05 8.23396 0.0303167 8.33887 0.0927734L15.6602 4.40039C15.87 4.52542 16 4.75551 16 5.00293V13.8848C16 15.0496 15.0704 15.9998 13.9258 16H11.0107V8.90234C11.0107 8.6549 10.8808 8.42478 10.6709 8.2998L8.33887 6.93262C8.23396 6.87016 8.11642 6.83989 7.99902 6.83984C7.88162 6.83984 7.76411 6.8702 7.65918 6.93262L5.33203 8.2998C5.11961 8.42228 4.98931 8.6524 4.98926 8.90234V16H2.07422C0.929607 15.9997 0 15.0496 0 13.8848V5.00293C0 4.75553 0.130022 4.52542 0.339844 4.40039L7.65918 0.0927734C7.76413 0.030329 7.88159 0 7.99902 0ZM9.64551 9.30273V15.9971H6.34863V9.30273L7.99707 8.33496L9.64551 9.30273ZM7.10156 9.73242V15.25H8.89844V9.73242L8.00098 9.20508L7.10156 9.73242ZM0.74707 5.03027V13.8828C0.747235 14.6352 1.34248 15.2471 2.07227 15.2471H4.2373V8.90039C4.2373 8.3855 4.51183 7.90543 4.9541 7.65039L7.2793 6.28516C7.4992 6.15775 7.74665 6.08984 7.99902 6.08984C8.2514 6.08989 8.50135 6.1577 8.71875 6.28516L11.0479 7.65234C11.4852 7.91232 11.7578 8.3924 11.7578 8.90234V15.25H13.9229C14.6527 15.25 15.248 14.6373 15.248 13.8848V5.03027L7.99902 0.762695L0.74707 5.03027Z" fill="white"/>
</svg>
