<svg width="12" height="16" viewBox="0 0 12 16" fill="none" xmlns="http://www.w3.org/2000/svg">
<g clip-path="url(#clip0_929_3273)">
<path d="M4.96662 15.6394L0.213523 10.8863C-0.0711744 10.6016 -0.0711744 10.138 0.213523 9.85057L0.557872 9.50623L5.82884 14.7772L11.0998 9.50623L11.4442 9.85057C11.7289 10.1353 11.7289 10.5989 11.4442 10.8863L6.68836 15.6421C6.21115 16.1193 5.4384 16.1193 4.96119 15.6421L4.96662 15.6394Z" fill="white"/>
<path d="M4.96662 0.357905L0.213523 5.111C-0.0711744 5.3957 -0.0711744 5.85935 0.213523 6.14675L0.557872 6.4911L5.83155 1.22013L11.1025 6.4911L11.4469 6.14675C11.7316 5.86206 11.7316 5.39841 11.4469 5.111L6.69378 0.357905C6.21657 -0.119302 5.44382 -0.119302 4.96662 0.357905Z" fill="white"/>
</g>
<defs>
<clipPath id="clip0_929_3273">
<rect width="11.6604" height="16" fill="white"/>
</clipPath>
</defs>
</svg>
