<svg width="16" height="16" viewBox="0 0 16 16" fill="none" xmlns="http://www.w3.org/2000/svg">
<g clip-path="url(#clip0_108_225)">
<path d="M2.68994 7.67496C2.68994 8.65746 3.48494 9.45246 4.46744 9.45246C5.44994 9.45246 6.24494 8.65746 6.24494 7.67496C6.24494 6.69246 5.44994 5.89746 4.46744 5.89746C3.48494 5.89746 2.68994 6.69496 2.68994 7.67496ZM5.47744 7.67496C5.47744 8.23246 5.02494 8.68246 4.46994 8.68246C3.91494 8.68246 3.46244 8.22996 3.46244 7.67496C3.46244 7.11746 3.91494 6.66746 4.46994 6.66746C5.02494 6.66746 5.47744 7.11996 5.47744 7.67496Z" fill="#F2F2F2"/>
<path d="M15.63 5.8524C15.4875 5.9999 15.3375 6.1349 15.175 6.2599V9.9449L13.5575 7.1424C13.53 7.0924 13.495 7.0449 13.4525 7.0074C13.3225 6.8699 13.1425 6.7924 12.955 6.7949C12.7475 6.7949 12.5525 6.8899 12.425 7.0524C12.3975 7.0849 12.3725 7.1174 12.3525 7.1549L10.8 9.8199L9.8425 8.1649C9.65 7.8324 9.2225 7.7174 8.89 7.9099C8.785 7.9699 8.695 8.0599 8.635 8.1649L6.245 12.3174C4.1175 12.0599 2.2825 12.5999 0.9375 12.9949L0.77 13.0424V4.7999C0.77 4.6574 0.885 4.5424 1.0275 4.5424H9.1575C9.1275 4.4649 9.1 4.3849 9.075 4.3074C9.02 4.1324 8.9775 3.9549 8.95 3.7749H1.025C0.4575 3.7749 0 4.2349 0 4.7999V14.9749C0 15.5424 0.46 15.9999 1.025 15.9999H14.92C15.4875 15.9999 15.945 15.5399 15.945 14.9749V5.4824C15.8475 5.6124 15.745 5.7374 15.6325 5.8549H15.63V5.8524ZM15.1775 14.9749C15.1775 15.1174 15.0625 15.2324 14.92 15.2324H1.025C0.8825 15.2324 0.7675 15.1174 0.7675 14.9749V13.8424L1.15 13.7324C2.4325 13.3549 4.1825 12.8399 6.1525 13.0774C6.4325 13.1474 6.725 13.0224 6.8675 12.7724L9.2425 8.6674L10.1975 10.3074C10.39 10.6399 10.8175 10.7549 11.15 10.5624C11.255 10.5024 11.345 10.4124 11.405 10.3074L12.945 7.6324L15.16 11.4624L15.175 14.9749H15.1775Z" fill="#F2F2F2"/>
<path d="M12.8051 6.305C14.5451 6.305 15.9576 4.8925 15.9576 3.1525C15.9601 1.4125 14.5476 0 12.8051 0C11.0626 0 9.65259 1.4125 9.65259 3.1525C9.65259 4.8925 11.0651 6.305 12.8051 6.305ZM12.8051 0.77C14.1176 0.77 15.1851 1.83 15.1876 3.1425C15.1876 3.645 15.0301 4.1325 14.7376 4.54L11.4151 1.22C11.8201 0.9275 12.3051 0.7675 12.8051 0.7675V0.77ZM10.8726 1.765L14.1951 5.085C13.1326 5.855 11.6451 5.6175 10.8751 4.555C10.2726 3.7225 10.2726 2.5975 10.8751 1.765H10.8726Z" fill="#F2F2F2"/>
</g>
<defs>
<clipPath id="clip0_108_225">
<rect width="15.96" height="16" fill="white"/>
</clipPath>
</defs>
</svg>
