<svg width="16" height="14" viewBox="0 0 16 14" fill="none" xmlns="http://www.w3.org/2000/svg">
<path d="M14.125 0H1.875C0.841125 0 0 0.841125 0 1.875V9.375C0 10.4089 0.841125 11.25 1.875 11.25H7.375V12.5H4.125V13.75H11.875V12.5H8.625V11.25H14.125C15.1589 11.25 16 10.4089 16 9.375V1.875C16 0.841125 15.1589 0 14.125 0ZM14.75 9.375C14.75 9.71962 14.4696 10 14.125 10H1.875C1.53038 10 1.25 9.71962 1.25 9.375V1.875C1.25 1.53038 1.53038 1.25 1.875 1.25H14.125C14.4696 1.25 14.75 1.53038 14.75 1.875V9.375Z" fill="white"/>
</svg>
