<svg width="4" height="16" viewBox="0 0 4 16" fill="none" xmlns="http://www.w3.org/2000/svg">
<g clip-path="url(#clip0_107_845)">
<path d="M1.71484 12.5693C2.66297 12.5693 3.43066 13.337 3.43066 14.2852C3.43046 15.2306 2.66285 16 1.71484 16C0.766995 15.9998 0.000200434 15.233 0 14.2852C0 13.3371 0.766871 12.5695 1.71484 12.5693ZM1.71484 6.28516C2.66297 6.28516 3.43066 7.05187 3.43066 8C3.43066 8.94561 2.66297 9.71484 1.71484 9.71484C0.766877 9.71466 9.14398e-06 8.94801 0 8C0 7.05198 0.766871 6.28534 1.71484 6.28516ZM1.71777 0C2.66575 4.19805e-05 3.43244 0.766897 3.43262 1.71484H3.43066C3.43066 2.66046 2.66297 3.43066 1.71484 3.43066C0.766871 3.43048 0 2.66286 0 1.71484C0.000182316 0.766871 0.769758 0 1.71777 0Z" fill="#F2F2F2"/>
</g>
<defs>
<clipPath id="clip0_107_845">
<rect width="3.43262" height="16" fill="white"/>
</clipPath>
</defs>
</svg>
