<svg width="17" height="17" viewBox="0 0 17 17" fill="none" xmlns="http://www.w3.org/2000/svg">
<path d="M8.16504 0C12.6744 0 16.3307 3.65571 16.3311 8.16504C16.3311 12.6747 12.6747 16.3311 8.16504 16.3311C3.65571 16.3307 0 12.6744 0 8.16504C0.000335179 3.65591 3.65591 0.000335179 8.16504 0ZM8.16504 1C4.2082 1.00034 1.00034 4.2082 1 8.16504C1 12.1222 4.20799 15.3307 8.16504 15.3311C12.1224 15.3311 15.3311 12.1224 15.3311 8.16504C15.3307 4.20799 12.1222 1 8.16504 1ZM7.85938 1.33398C8.13141 1.31582 8.36859 1.51933 8.3916 1.79102C8.41427 2.06307 8.21394 2.30396 7.94238 2.33105C7.62716 2.36202 7.32135 2.46164 7.04883 2.62305C6.77651 2.78448 6.54278 3.00418 6.36426 3.26562C6.18573 3.52722 6.06674 3.82515 6.01562 4.1377C5.96457 4.4504 5.98229 4.77124 6.06836 5.07617C6.15448 5.38103 6.30665 5.66352 6.51367 5.90332C6.72073 6.14311 6.9785 6.33422 7.26758 6.46387C7.55659 6.5934 7.87082 6.6582 8.1875 6.65332C8.50404 6.64834 8.81584 6.5739 9.10059 6.43555L9.10645 6.43359C9.50334 6.24624 9.83078 5.94016 10.0449 5.56055L10.1299 5.39355C10.2037 5.22695 10.3294 5.08762 10.4883 4.99805L10.6143 4.94043C10.7003 4.90915 10.7913 4.89195 10.8828 4.88965L11.0205 4.89746L11.0508 4.90234C11.5326 4.99913 11.9927 5.1795 12.4121 5.43164H12.4131C12.9272 5.72484 13.3788 6.11705 13.7412 6.58496C14.1036 7.05288 14.3701 7.58809 14.5254 8.15918C14.6807 8.73028 14.722 9.32707 14.6465 9.91406C14.5803 10.4276 14.4255 10.9256 14.1904 11.3857L14.085 11.5811C13.9472 11.8202 13.6416 11.9022 13.4023 11.7646C13.1631 11.627 13.0802 11.3214 13.2178 11.082C13.2265 11.0667 13.2346 11.0506 13.2432 11.0352C13.4684 10.6208 13.5541 10.144 13.4834 9.67676C13.4099 9.19189 13.1731 8.74549 12.8135 8.41211C12.4539 8.07896 11.9917 7.87748 11.5029 7.84082C11.014 7.80432 10.5263 7.93487 10.1211 8.21094C9.88503 8.37327 9.68365 8.58154 9.52832 8.82227C9.37277 9.06351 9.26625 9.33364 9.21582 9.61621C9.16544 9.89891 9.17174 10.1895 9.23438 10.4697C9.29707 10.7499 9.4151 11.0148 9.58105 11.249H9.5791C9.68751 11.3939 9.74792 11.5695 9.74805 11.751C9.74805 11.9422 9.68218 12.1282 9.5625 12.2773L9.55664 12.2852C9.23588 12.6693 8.85333 12.9978 8.42578 13.2578L8.41602 13.2646H8.41504C7.44222 13.8242 6.295 14.0003 5.19922 13.7578C4.10317 13.5151 3.13699 12.8714 2.49121 11.9531C2.33501 11.731 2.38514 11.4241 2.60352 11.2627C2.82174 11.102 3.12856 11.1444 3.29492 11.3584C3.5806 11.7265 3.97787 11.9924 4.42676 12.1172C4.87544 12.2419 5.35264 12.2194 5.78711 12.0518C6.2215 11.884 6.59133 11.5803 6.83984 11.1865C7.08819 10.7927 7.20357 10.3285 7.16797 9.86426V9.86328C7.14616 9.57708 7.06711 9.2976 6.93652 9.04199C6.80593 8.78644 6.62535 8.55938 6.40625 8.37402C6.18714 8.1887 5.93283 8.04833 5.65918 7.96191C5.38563 7.87564 5.09718 7.84421 4.81152 7.87012L4.81055 7.86816C4.6306 7.88935 4.44833 7.85361 4.29199 7.76074C4.12545 7.66173 3.99884 7.50701 3.93457 7.32422V7.32324C3.75993 6.84618 3.66917 6.34205 3.66699 5.83398V5.83301C3.66448 4.69143 4.09587 3.59114 4.87402 2.75586C5.64895 1.92433 6.7104 1.41637 7.84375 1.33496V1.33594C7.84872 1.33554 7.85442 1.33432 7.85938 1.33398ZM4.99023 4.35352C4.77802 4.81224 4.66597 5.31589 4.66699 5.83008L4.68066 6.125C4.70381 6.37719 4.75912 6.62515 4.83789 6.86621C5.2172 6.84589 5.59809 6.89426 5.96094 7.00879C6.36092 7.13513 6.73248 7.33944 7.05273 7.61035C7.37296 7.88128 7.63627 8.2134 7.82715 8.58691C8.01799 8.96048 8.13314 9.36884 8.16504 9.78711L8.17383 10.041C8.17177 10.6334 8.00338 11.2158 7.68555 11.7197C7.37982 12.2043 6.94767 12.5927 6.44043 12.8506C6.95218 12.8111 7.4533 12.661 7.90625 12.4023C8.20405 12.2211 8.47167 11.9955 8.7041 11.7363C8.49378 11.4166 8.34243 11.0616 8.25879 10.6875C8.16723 10.2779 8.15781 9.85361 8.23145 9.44043C8.30515 9.02748 8.46018 8.63282 8.6875 8.28027C8.91494 7.92769 9.21076 7.62325 9.55664 7.38574L9.55762 7.38477C10.1499 6.98108 10.8624 6.79039 11.5771 6.84375C12.1062 6.88333 12.6135 7.05577 13.0547 7.33984C13.021 7.29154 12.9863 7.24391 12.9502 7.19727C12.6683 6.83337 12.3178 6.52783 11.918 6.2998L11.9062 6.29395L12.165 5.86621L11.9062 6.29297C11.6201 6.11976 11.3085 5.99423 10.9844 5.91504C10.6728 6.53696 10.1644 7.03997 9.5332 7.33789L9.53223 7.33691C9.11726 7.53762 8.66309 7.64616 8.20215 7.65332C7.73928 7.66038 7.27982 7.56636 6.85742 7.37695C6.43498 7.18744 6.05942 6.90709 5.75684 6.55664C5.45422 6.20612 5.2323 5.7933 5.10645 5.34766C5.01505 5.02386 4.97611 4.68807 4.99023 4.35352Z" fill="white"/>
</svg>
