<svg width="16" height="16" viewBox="0 0 16 16" fill="none" xmlns="http://www.w3.org/2000/svg">
<path d="M10.8789 0C12.2491 0 13.5368 0.532963 14.502 1.49805C15.4671 2.46318 16 3.7509 16 5.12109C16 6.49124 15.4671 7.77903 14.502 8.74414C13.5369 9.70911 12.2519 10.2421 10.8818 10.2422C10.3443 10.2422 9.81141 10.1562 9.29883 9.99121L9.24414 9.97461L8.02344 11.1797C7.95097 11.2495 7.85573 11.2891 7.75586 11.2891H6.79395V12.2666C6.79395 12.3741 6.74853 12.4798 6.66602 12.5498C6.59602 12.6122 6.50554 12.6445 6.41309 12.6445H6.36816L5.55078 12.5498L5.44824 13.6445C5.43074 13.8246 5.2855 13.9698 5.10547 13.9873L4.01074 14.0898L4.10547 14.9072C4.11795 15.0221 4.07838 15.1372 3.99609 15.2197L3.3252 15.8896C3.25518 15.9597 3.15763 16.0029 3.05762 16.0029H0.379883V16C0.169981 15.9999 7.98018e-05 15.83 0 15.6201V12.9375C0 12.835 0.0403526 12.7399 0.110352 12.6699L6.02637 6.75391L6.00879 6.69824C5.41387 4.85564 5.89086 2.86316 7.25586 1.49805C8.22095 0.532969 9.50879 6.55778e-05 10.8789 0ZM10.8818 0.754883C9.71416 0.754883 8.61852 1.20766 7.7959 2.03027C6.57072 3.25545 6.19065 5.09126 6.82324 6.70898C6.87817 6.84897 6.84576 7.00873 6.73828 7.11621L0.759766 13.0947V15.2422H2.9082L3.33789 14.8125L3.2207 13.792C3.20827 13.6921 3.23787 13.5872 3.30273 13.5098C3.36524 13.4298 3.46096 13.3801 3.56348 13.3701L4.73047 13.2598L4.84082 12.0918C4.85085 11.9919 4.90063 11.897 4.98047 11.832C5.04798 11.777 5.13374 11.7471 5.21875 11.7471H5.26074L6.04102 11.8369V10.9043C6.04102 10.6943 6.2109 10.5245 6.4209 10.5244H7.60645L8.88672 9.25879C8.95918 9.18897 9.05193 9.14941 9.1543 9.14941C9.20151 9.14947 9.24874 9.15895 9.29102 9.17383C9.80109 9.37386 10.3391 9.47363 10.8867 9.47363C12.0518 9.47362 13.1471 9.02176 13.9697 8.19922C14.7924 7.3766 15.2451 6.27845 15.2451 5.11328C15.2451 3.94828 14.7922 2.85087 13.9697 2.02832C13.1471 1.2057 12.049 0.75293 10.8838 0.75293L10.8818 0.754883ZM12.2217 2.45312C12.5792 2.45312 12.9121 2.59078 13.1621 2.84082C13.4119 3.09075 13.5497 3.42545 13.5498 3.78027C13.5498 4.13529 13.4121 4.46818 13.1621 4.7207C12.9121 4.97074 12.5767 5.1084 12.2217 5.1084V5.10547C11.8667 5.10542 11.5347 4.96776 11.2822 4.71777C10.7646 4.2002 10.7646 3.35839 11.2822 2.84082C11.5322 2.59088 11.8642 2.45318 12.2217 2.45312ZM12.2217 3.20801C12.0692 3.20806 11.9268 3.26851 11.8193 3.37598C11.7119 3.48347 11.6514 3.62589 11.6514 3.77832C11.6514 3.93077 11.7119 4.07319 11.8193 4.18066C11.9268 4.28813 12.0692 4.34858 12.2217 4.34863C12.3741 4.34863 12.5165 4.28805 12.624 4.18066C12.8466 3.95813 12.8466 3.59851 12.624 3.37598C12.5165 3.26847 12.3742 3.20801 12.2217 3.20801Z" fill="white"/>
</svg>
