<svg width="15" height="16" viewBox="0 0 15 16" fill="none" xmlns="http://www.w3.org/2000/svg">
<g clip-path="url(#clip0_107_864)">
<path d="M14.2481 6.06385C14.4872 6.00635 14.7339 6.15146 14.7931 6.38709V6.38416C15.4359 8.97468 14.5765 11.6909 12.5528 13.4789C11.172 14.6951 9.41564 15.3549 7.56942 15.3549C7.44612 15.3549 7.31993 15.3526 7.19149 15.3451C5.59998 15.2673 4.10883 14.7078 2.89266 13.7474L3.05477 15.515C3.07791 15.7608 2.89241 15.9739 2.64559 15.9965C2.63024 15.999 2.61737 15.9994 2.60458 15.9994C2.37315 15.9994 2.17495 15.8262 2.15438 15.598L1.8868 12.6918C1.86366 12.446 2.04913 12.2329 2.29598 12.2103L5.27645 11.9496C5.52829 11.9272 5.74645 12.1024 5.76962 12.348C5.79275 12.5936 5.60804 12.8067 5.36141 12.8295L3.39169 13.0023C4.58984 13.9752 6.00878 14.47 7.56942 14.4701C9.13026 14.4701 10.6996 13.9284 11.9493 12.8275C13.7287 11.2602 14.4818 8.86963 13.9161 6.5951C13.8545 6.36193 14.0065 6.12151 14.2481 6.06385ZM12.4942 0.000371519C12.741 -0.00950033 12.9517 0.178536 12.962 0.4242L13.0724 3.30506V3.35779C13.0724 3.59603 12.8821 3.78917 12.6378 3.7992L9.64755 3.9076H9.63192C9.39033 3.90759 9.19023 3.72184 9.17977 3.48377C9.16949 3.24052 9.36234 3.03677 9.61434 3.02674L11.5606 2.95447C9.10236 1.00344 5.47607 1.03564 3.0538 3.17225H3.05673C1.2773 4.73959 0.526788 7.13013 1.08993 9.40467C1.14878 9.63775 0.99946 9.87828 0.757898 9.93592C0.719356 9.94593 0.685477 9.94861 0.649499 9.94861C0.444046 9.94841 0.261504 9.81554 0.210046 9.61268C-0.432806 7.02468 0.42402 4.3064 2.45028 2.52088C3.92113 1.21935 5.82904 0.556866 7.81161 0.654668C9.41351 0.732452 10.9128 1.29456 12.129 2.26502L12.0597 0.456426C12.0495 0.213239 12.2423 0.0104005 12.4942 0.000371519Z" fill="#F2F2F2"/>
</g>
<defs>
<clipPath id="clip0_107_864">
<rect width="15.0028" height="15.9994" fill="white"/>
</clipPath>
</defs>
</svg>
