<svg width="16" height="16" viewBox="0 0 16 16" fill="none" xmlns="http://www.w3.org/2000/svg">
<g clip-path="url(#clip0_107_875)">
<path d="M15.0506 9.88227C15.6462 7.22569 14.7737 4.45416 12.7493 2.62302C11.2551 1.2673 9.3169 0.577686 7.3029 0.679561C5.67552 0.760539 4.15523 1.34567 2.91705 2.35919L2.98758 0.475811C2.99803 0.219817 2.7995 0.010843 2.54612 0.000394269C2.29535 -0.0100545 2.07854 0.188471 2.07071 0.441853L1.95838 3.44325V3.4981C1.95838 3.74626 2.15168 3.9474 2.39984 3.95785L5.43519 4.07017H5.45348C5.69902 4.07017 5.90277 3.87687 5.91322 3.62871C5.92367 3.37272 5.72515 3.16113 5.47177 3.1533L3.49434 3.07754C5.98898 1.04527 9.67215 1.07922 12.1354 3.3048C13.896 4.89562 14.6588 7.2936 14.1729 9.60538C13.8778 11.1649 13.0393 12.5232 11.869 13.4871C11.7932 13.5498 11.7175 13.6099 11.6391 13.6699C11.6391 13.6699 11.6365 13.6725 11.6339 13.6725C10.4454 14.6025 9.00082 15.0779 7.55106 15.0779C7.48314 15.0779 7.41262 15.0701 7.3447 15.0675C5.82702 15.0204 4.31718 14.4614 3.10252 13.3643C1.29489 11.7291 0.529519 9.24229 1.1042 6.87304C1.16428 6.6275 1.01277 6.37934 0.767228 6.31926C0.521683 6.25918 0.273525 6.41069 0.213445 6.65623C-0.4396 9.35461 0.430256 12.1836 2.48865 14.0461C3.8914 15.313 5.67552 16 7.55106 16C7.67645 16 7.80705 15.9974 7.93505 15.9896C9.48146 15.9112 10.9312 15.3705 12.1354 14.4484C12.1616 14.4275 12.1877 14.4092 12.2138 14.3883C12.2425 14.3674 12.2713 14.3439 12.3 14.3204C12.3522 14.2786 12.4045 14.2394 12.4541 14.1976C12.5508 14.1166 12.65 14.033 12.7441 13.9442C13.9065 12.8837 14.6902 11.5175 15.0245 10.0103C15.0323 9.96325 15.0402 9.92929 15.0532 9.8875V9.88227H15.0506Z" fill="white"/>
</g>
<defs>
<clipPath id="clip0_107_875">
<rect width="15.2346" height="16" fill="white"/>
</clipPath>
</defs>
</svg>
