<svg width="16" height="15" viewBox="0 0 16 15" fill="none" xmlns="http://www.w3.org/2000/svg">
<path d="M5.09625 14.4875C4.37875 14.4875 3.53875 14.0025 3.18125 13.3825L0.27375 8.35C-0.09125 7.72 -0.09125 6.7675 0.27375 6.1375L3.18125 1.105C3.53875 0.485 4.38125 0 5.09625 0H10.9062C11.6237 0 12.4637 0.485 12.8212 1.105L15.7263 6.1375C16.0913 6.7675 16.0913 7.72 15.7263 8.35L12.8188 13.3825C12.4613 14.0025 11.6213 14.4875 10.9038 14.4875H5.09125H5.09625ZM5.09625 0.7625C4.65125 0.7625 4.06375 1.1 3.84125 1.4875L0.93625 6.52C0.71375 6.905 0.71375 7.5825 0.93625 7.9675L3.84125 13C4.06375 13.385 4.64875 13.725 5.09625 13.725H10.9088C11.3538 13.725 11.9413 13.3875 12.1638 13L15.0712 7.9675C15.2937 7.5825 15.2937 6.905 15.0712 6.52L12.1663 1.4875C11.9438 1.1025 11.3563 0.7625 10.9113 0.7625H5.09875H5.09625ZM8.00125 10.2225C6.35875 10.2225 5.02125 8.885 5.02125 7.2425C5.02125 5.6 6.35875 4.2625 8.00125 4.2625C9.64375 4.2625 10.9812 5.6 10.9812 7.2425C10.9812 8.885 9.64375 10.2225 8.00125 10.2225ZM8.00125 5.0275C6.77875 5.0275 5.78625 6.02 5.78625 7.2425C5.78625 8.465 6.78125 9.4575 8.00125 9.4575C9.22125 9.4575 10.2163 8.465 10.2163 7.2425C10.2163 6.02 9.22125 5.0275 8.00125 5.0275Z" fill="white"/>
</svg>
