<svg width="16" height="16" viewBox="0 0 16 16" fill="none" xmlns="http://www.w3.org/2000/svg">
<path d="M7.84766 0C8.26258 8.66939e-05 8.59723 0.345236 8.59473 0.769531V1.28027H2C1.5875 1.28027 1.25 1.6235 1.25 2.04785V13.9551C1.25007 14.3768 1.58504 14.7217 2 14.7217H8.59473V15.2334C8.59457 15.6551 8.25963 16 7.84473 16H0.75V15.9971C0.3375 15.9971 0 15.6548 0 15.2305V0.766602C0.00015685 0.344943 0.337596 0 0.75 0H7.84766ZM10.5098 2.76855C10.7623 2.51292 11.168 2.51292 11.418 2.76855L15.6221 7.06836L15.625 7.06543C15.8675 7.31339 16.0029 7.64881 16.0029 7.99902C16.0029 8.34909 15.8674 8.68375 15.625 8.93164L11.4199 13.2314C11.1674 13.4871 10.7627 13.487 10.5127 13.2314L10.21 12.9219L14.4902 8.5459H2.98047V8.1084C2.9806 7.74808 3.2652 7.4541 3.62012 7.4541H14.4873L10.207 3.07812L10.5098 2.76855Z" fill="#F2F2F2"/>
</svg>
