<svg width="16" height="16" viewBox="0 0 16 16" fill="none" xmlns="http://www.w3.org/2000/svg">
<g clip-path="url(#clip0_171_980)">
<path d="M15.25 0C15.6649 7.92802e-07 15.9998 0.344962 16 0.766602V15.2324C16 15.6568 15.6625 16 15.25 16H8.15527C7.74027 16 7.40527 15.6543 7.40527 15.2324V14.7217H14C14.415 14.7217 14.75 14.3759 14.75 13.9541V2.04492C14.7498 1.62073 14.4124 1.27832 14 1.27832H7.40527V0.766602C7.40551 0.342408 7.74292 0 8.15527 0H15.25ZM7.53027 2.26758C7.78275 2.0122 8.18757 2.01211 8.4375 2.26758L12.6426 6.56836L12.6445 6.56543C12.887 6.81342 13.0225 7.14876 13.0225 7.49902C13.0224 7.84917 12.887 8.18372 12.6445 8.43164L8.44043 12.7324C8.18793 12.9881 7.78223 12.9881 7.53223 12.7324L7.23047 12.4229L11.5098 8.0459H0V7.6084C0.000124485 7.24814 0.284889 6.9543 0.639648 6.9541H11.5078L7.22754 2.57715L7.53027 2.26758Z" fill="#F2F2F2"/>
</g>
<defs>
<clipPath id="clip0_171_980">
<rect width="16" height="16" fill="white"/>
</clipPath>
</defs>
</svg>
