<svg width="16" height="14" viewBox="0 0 16 14" fill="none" xmlns="http://www.w3.org/2000/svg">
<path d="M11.9346 0C9.7017 0 7.88169 1.79736 7.86407 4.01259L5.32914 7.62996C4.62177 7.56702 4.01259 7.71303 3.47388 8.04028L0 6.64065V10.4594L2.05412 11.2826C2.35116 12.6419 3.57206 13.6665 5.01951 13.6665C6.59031 13.6665 7.89427 12.4657 8.03776 10.9352L11.9396 8.09566C14.1775 8.09566 16 6.28823 16 4.04783C16 1.8175 14.18 0.00251724 11.9371 0.00251724L11.9346 0ZM5.01699 12.8584C4.15859 12.8584 3.42102 12.3776 3.04594 11.6778C3.41095 11.8162 3.77848 11.9698 4.14349 12.1108C5.05475 12.4833 6.08936 12.0403 6.45437 11.1315C6.8219 10.2253 6.37634 9.20076 5.46507 8.83826L4.53619 8.4657C4.69729 8.43046 4.8584 8.41284 5.01699 8.41284C6.25551 8.41284 7.24984 9.40214 7.24984 10.6356C7.24984 11.8691 6.25802 12.8584 5.01699 12.8584ZM11.9371 6.75645C10.4292 6.75645 9.20579 5.54563 9.20579 4.04531C9.20579 2.545 10.4267 1.33417 11.9371 1.33417C13.4475 1.33417 14.6583 2.55003 14.6583 4.04531C14.6583 5.54059 13.4323 6.76149 11.9371 6.75645Z" fill="#F2F2F2"/>
<path d="M11.9446 1.87036C10.7413 1.87036 9.76709 2.84204 9.76709 4.04028C9.76709 5.23852 10.7388 6.2102 11.9446 6.2102C13.1504 6.2102 14.122 5.24355 14.122 4.04028C14.122 2.83701 13.1403 1.87036 11.9446 1.87036Z" fill="#F2F2F2"/>
</svg>
