<svg width="16" height="16" viewBox="0 0 16 16" fill="none" xmlns="http://www.w3.org/2000/svg">
<path d="M8 0C12.4175 0 16 3.5825 16 8C16 12.4175 12.4175 16 8 16C3.5825 16 0 12.4175 0 8C0 3.5825 3.5825 0 8 0ZM8 0.75C4.0025 0.75 0.75 4.0025 0.75 8C0.75 11.9975 4.0025 15.25 8 15.25C11.9975 15.25 15.25 11.9975 15.25 8C15.25 4.0025 11.9975 0.75 8 0.75ZM10.7852 5.21484V10.5371L10.5352 10.7871H5.21289V5.46484L5.46289 5.21484H10.7852ZM5.96484 5.96289V10.0352H10.0371V5.96289H5.96484Z" fill="#F2F2F2"/>
</svg>
