<svg width="11" height="16" viewBox="0 0 11 16" fill="none" xmlns="http://www.w3.org/2000/svg">
<path d="M0.3825 16C0.1725 16 0 15.8275 0 15.6175V8C0 7.79 0.1725 7.6175 0.3825 7.6175H1.27V4.1925C1.27 1.88 3.15 0 5.46 0C7.77 0 9.65 1.88 9.65 4.1925V5.4625C9.65 5.6725 9.4775 5.845 9.2675 5.845C9.0575 5.845 8.885 5.6725 8.885 5.4625V4.1925C8.885 2.3025 7.3475 0.765 5.46 0.765C3.5725 0.765 2.0325 2.3025 2.0325 4.1925V7.6175H10.5375C10.7475 7.6175 10.92 7.79 10.92 8V15.6175C10.92 15.8275 10.7475 16 10.5375 16H0.3825ZM0.765 15.235H10.1575V8.3825H0.765V15.235ZM5.46 12.3525C5.16 12.3525 4.915 12.1075 4.915 11.81C4.915 11.5125 5.16 11.265 5.46 11.265C5.76 11.265 6.0025 11.51 6.0025 11.81C6.0025 12.11 5.7575 12.3525 5.46 12.3525Z" fill="white"/>
</svg>
