<svg width="11" height="16" viewBox="0 0 11 16" fill="none" xmlns="http://www.w3.org/2000/svg">
<g clip-path="url(#clip0_170_962)">
<path d="M10.418 9.15234C10.418 9.64471 10.0177 10.0447 9.52539 10.0449H5.76758C3.19758 10.0449 1.11523 12.1278 1.11523 14.6953V15.1074C1.11523 15.5999 0.715085 15.9999 0.222656 16H0V14.6973C0.000122689 11.5124 2.58265 8.92969 5.76758 8.92969H10.418V9.15234ZM6.88281 0C9.14269 0.00014789 10.9746 1.83536 10.9746 4.09277C10.9745 6.35006 9.1401 8.18442 6.88281 8.18457C4.6254 8.18457 2.79019 6.35015 2.79004 4.09277C2.79004 1.83527 4.62531 0 6.88281 0ZM6.88281 1.11719C5.2404 1.11719 3.90542 2.44985 3.90527 4.09473C3.90527 5.73973 5.23781 7.07227 6.88281 7.07227C8.52769 7.07212 9.86035 5.73964 9.86035 4.09473C9.8602 2.44994 8.5276 1.11734 6.88281 1.11719Z" fill="#F2F2F2"/>
</g>
<defs>
<clipPath id="clip0_170_962">
<rect width="10.9746" height="16" fill="white"/>
</clipPath>
</defs>
</svg>
