<svg width="16" height="11" viewBox="0 0 16 11" fill="none" xmlns="http://www.w3.org/2000/svg">
<path d="M8.00019 0C12.3528 0 15.7833 4.62018 15.926 4.81641C16.0253 4.95145 16.0253 5.13254 15.926 5.26758C15.7807 5.4638 12.3477 10.084 8.00019 10.084C3.64252 10.0839 0.217116 5.4638 0.0744076 5.26758C-0.0248075 5.1326 -0.0247976 4.95139 0.0744076 4.81641C0.217116 4.62018 3.64762 0.000100887 8.00019 0ZM8.00019 0.764648C4.64658 0.764739 1.75469 3.96322 0.949408 4.94434L0.867376 5.04297L0.949408 5.14258C1.75745 6.12391 4.65443 9.32217 8.00019 9.32227C11.3462 9.32227 14.2467 6.12371 15.0519 5.14258L15.133 5.04297L15.0519 4.94434C14.2441 3.96321 11.3462 0.764648 8.00019 0.764648ZM8.00019 1.96973C9.69232 1.96973 11.0715 3.34889 11.0715 5.04102C11.0713 6.73299 9.69221 8.11133 8.00019 8.11133C6.30817 8.11133 4.93005 6.73299 4.92988 5.04102C4.92988 3.34889 6.30806 1.96973 8.00019 1.96973ZM8.00019 2.7373C6.72864 2.73731 5.6937 3.77145 5.69355 5.04297C5.69355 6.31461 6.72855 7.34961 8.00019 7.34961C9.27183 7.34961 10.3068 6.31461 10.3068 5.04297C10.3067 3.77145 9.27174 2.7373 8.00019 2.7373Z" fill="#FFFDFD"/>
</svg>
