<svg width="16" height="16" viewBox="0 0 16 16" fill="none" xmlns="http://www.w3.org/2000/svg">
<path d="M7.54928 0.00437965C9.22154 -0.053112 10.9088 0.456814 12.2761 1.45167C13.9259 2.629 15.0957 4.48373 15.4656 6.51094C15.7681 7.97823 15.5956 9.523 15.0732 10.9178C14.3908 12.74 13.031 14.2823 11.3337 15.1647C10.2364 15.7296 9.00907 16.0646 7.77675 15.9896C6.7494 16.0496 5.72455 15.8121 4.77968 15.4072C2.86996 14.5898 1.31018 12.955 0.557794 10.9778C-0.0346208 9.46051 -0.167102 7.75326 0.217843 6.16349C0.655279 4.22877 1.83761 2.48652 3.43988 1.37918C4.6472 0.529304 6.09199 0.0568721 7.54928 0.00437965ZM6.0645 1.88661C4.42724 2.37404 3.00994 3.58386 2.25005 5.15364C1.66014 6.33846 1.47516 7.71826 1.67263 9.02808C1.70513 9.18555 1.69013 9.36553 1.79012 9.50301C2.41253 8.07821 3.15742 6.64592 4.35225 5.63857C5.49958 4.7087 6.88438 3.9988 8.36917 3.97131C8.06921 3.60386 7.76425 3.23891 7.4568 2.87646C8.52414 3.18392 9.58649 3.50637 10.6413 3.85132C9.91644 4.59622 9.19405 5.34611 8.43916 6.0585C8.46415 5.59857 8.49665 5.13864 8.50915 4.6787C7.98922 4.77119 7.50429 5.02865 7.10185 5.3761C6.22447 6.13849 5.70705 7.24333 5.3846 8.35817C5.05465 9.50301 4.91466 10.7053 4.97216 11.8977C5.79454 11.8002 6.59192 11.5102 7.31182 11.0928C8.18919 10.5804 8.93158 9.77047 9.22904 8.76311C8.8516 8.82561 8.47665 8.91059 8.1042 9.00558C8.70412 8.22319 9.31903 7.4483 9.91894 6.66342C10.4339 7.53829 10.9613 8.40817 11.4112 9.32053C11.0113 9.16056 10.6338 8.94559 10.2239 8.81061C10.6438 10.5304 10.5514 12.3876 9.88395 14.0274C11.6787 13.3874 13.141 11.8452 13.7134 9.98294C14.2258 8.35567 14.0808 6.50844 13.2785 5.00366C12.6011 3.69135 11.4562 2.644 10.1139 2.09158C8.8341 1.56165 7.38181 1.50166 6.0595 1.88661H6.0645Z" fill="#F2F2F2"/>
</svg>
