<svg width="64" height="64" viewBox="0 0 64 64" fill="none" xmlns="http://www.w3.org/2000/svg">
<path d="M44.7995 32.5295L32.518 11.4818C32.4328 11.3353 32.3099 11.2137 32.1619 11.1291C32.014 11.0445 31.846 11 31.6751 11C31.5041 11 31.3362 11.0445 31.1882 11.1291C31.0402 11.2137 30.9174 11.3353 30.8321 11.4818L18.5377 32.5295L6.25629 53.5579C6.17089 53.7041 6.12595 53.87 6.12598 54.0388C6.126 54.2076 6.171 54.3734 6.25644 54.5196C6.34189 54.6658 6.46475 54.7871 6.6127 54.8714C6.76065 54.9558 6.92846 55.0001 7.09925 55H26.319C26.4896 54.9988 26.6569 54.9539 26.8047 54.8697C26.9524 54.7854 27.0755 54.6647 27.1619 54.5193L29.2888 50.8661L30.858 48.1807C30.9433 48.0342 31.0662 47.9126 31.2141 47.828C31.3621 47.7434 31.5301 47.6989 31.701 47.6989C31.872 47.6989 32.0399 47.7434 32.1879 47.828C32.3359 47.9126 32.4587 48.0342 32.544 48.1807L34.1132 50.8661L36.2466 54.5193C36.3325 54.6651 36.4555 54.7862 36.6034 54.8705C36.7512 54.9548 36.9188 54.9995 37.0895 55H56.2704C56.4411 55.0001 56.609 54.9558 56.7569 54.8714C56.9049 54.7871 57.0277 54.6658 57.1132 54.5196C57.1986 54.3734 57.2436 54.2076 57.2436 54.0388C57.2437 53.87 57.1987 53.7041 57.1133 53.5579L44.7995 32.5295Z" fill="white"/>
</svg>
