<svg width="64" height="64" viewBox="0 0 64 64" fill="none" xmlns="http://www.w3.org/2000/svg">
<path d="M10.0004 12.0922V53.9362C10.0004 54.2183 10.1126 54.4889 10.3124 54.6884C10.5121 54.8879 10.7831 55 11.0656 55H25.4315C25.714 55 25.9849 54.8879 26.1847 54.6884C26.3845 54.4889 26.4967 54.2183 26.4967 53.9362V45.0496C26.4967 44.7675 26.6089 44.4969 26.8087 44.2974C27.0084 44.0979 27.2794 43.9858 27.5619 43.9858H36.4314C36.7139 43.9858 36.9848 44.0979 37.1846 44.2974C37.3844 44.4969 37.4966 44.7675 37.4966 45.0496V53.9078C37.4985 54.1894 37.6113 54.4589 37.8106 54.658C38.01 54.8571 38.2799 54.9698 38.5618 54.9716H52.9348C53.2173 54.9716 53.4882 54.8595 53.688 54.66C53.8878 54.4605 54 54.1899 54 53.9078V12.0638C54 11.7817 53.8878 11.5111 53.688 11.3116C53.4882 11.1121 53.2173 11 52.9348 11H11.0372C10.8973 11.0037 10.7595 11.0349 10.6316 11.0917C10.5038 11.1486 10.3885 11.2301 10.2922 11.3315C10.1959 11.433 10.1206 11.5524 10.0705 11.6829C10.0204 11.8134 9.99661 11.9525 10.0004 12.0922V12.0922Z" fill="white"/>
</svg>
