<svg width="67" height="131" viewBox="0 0 67 131" fill="none" xmlns="http://www.w3.org/2000/svg">
<g clip-path="url(#clip0_34_39)">
<path d="M41.5 1.5H43.5H45.5H47.5H49.5H51.5H53.5L59.5 7.5L65.5 13.5V16.44V19.39V23.39V27.39V31.39V35.39V39.39V43.39V47.39V51.39V55.39V59.39V64.33V68.33V72.33V75.39V79.39V83.39V87.39V91.39V95.39V99.39V103.39V107.39V111.39V115.39V116.44V117.5L59.5 123.5L53.5 129.5H51.5H49.5H47.5H45.5H43.5H41.5" stroke="#84FFB1" stroke-width="3" stroke-linejoin="bevel"/>
<path d="M25.5 129.5H23.5H21.5H19.5H17.5H15.5H13.5L7.5 123.5L1.5 117.5V116.44V115.39V111.39V107.39V103.39V99.39V95.39V91.39V87.39V83.39V79.39V75.39V72.33V68.33V64.33V59.39V55.39V51.39V47.39V43.39V39.39V35.39V31.39V27.39V23.39V19.39V16.44V13.5L7.5 7.5L13.5 1.5H15.5H17.5H19.5H21.5H23.5H25.5" stroke="#84FFB1" stroke-width="3" stroke-linejoin="bevel"/>
</g>
<defs>
<clipPath id="clip0_34_39">
<rect width="67" height="131" fill="white"/>
</clipPath>
</defs>
</svg>
